<mxfile host="app.diagrams.net" modified="2020-07-29T04:59:18.793Z" agent="5.0 (Windows NT 10.0; Win64; x64) AppleWebKit/537.36 (KHTML, like Gecko) Chrome/84.0.4147.105 Safari/537.36" etag="gvV6YFi89E4pdaCePXNV" version="13.5.4" type="github" pages="5">
  <diagram name="dashboard" id="03018318-947c-dd8e-b7a3-06fadd420f32">
    <mxGraphModel dx="1221" dy="645" grid="1" gridSize="10" guides="1" tooltips="1" connect="1" arrows="1" fold="1" page="1" pageScale="1" pageWidth="1100" pageHeight="850" background="#ffffff" math="0" shadow="0">
      <root>
        <mxCell id="0" />
        <mxCell id="1" parent="0" />
        <mxCell id="677b7b8949515195-1" value="" style="whiteSpace=wrap;html=1;rounded=0;shadow=0;labelBackgroundColor=none;strokeColor=#000000;strokeWidth=1;fillColor=none;fontFamily=Verdana;fontSize=12;fontColor=#000000;align=center;comic=1;" parent="1" vertex="1">
          <mxGeometry x="20" y="20" width="1060" height="570" as="geometry" />
        </mxCell>
        <mxCell id="677b7b8949515195-2" value="Logo" style="whiteSpace=wrap;html=1;rounded=0;shadow=0;labelBackgroundColor=none;strokeWidth=1;fontFamily=Verdana;fontSize=28;align=center;comic=1;" parent="1" vertex="1">
          <mxGeometry x="40" y="50" width="180" height="50" as="geometry" />
        </mxCell>
        <mxCell id="677b7b8949515195-9" value="" style="line;strokeWidth=1;html=1;rounded=0;shadow=0;labelBackgroundColor=none;fillColor=none;fontFamily=Verdana;fontSize=14;fontColor=#000000;align=center;comic=1;rotation=90;" parent="1" vertex="1">
          <mxGeometry x="-45" y="302" width="570" height="10" as="geometry" />
        </mxCell>
        <mxCell id="677b7b8949515195-26" value="" style="whiteSpace=wrap;html=1;rounded=0;shadow=0;labelBackgroundColor=none;strokeWidth=1;fillColor=none;fontFamily=Verdana;fontSize=12;align=center;comic=1;" parent="1" vertex="1">
          <mxGeometry x="260" y="170" width="520" height="390" as="geometry" />
        </mxCell>
        <mxCell id="677b7b8949515195-28" value="Icon" style="text;html=1;points=[];align=left;verticalAlign=top;spacingTop=-4;fontSize=14;fontFamily=Verdana" parent="1" vertex="1">
          <mxGeometry x="940" y="70" width="170" height="20" as="geometry" />
        </mxCell>
        <mxCell id="6C0aDu97zU6bo5BAWvWG-2" value="Icon" style="text;html=1;points=[];align=left;verticalAlign=top;spacingTop=-4;fontSize=14;fontFamily=Verdana" vertex="1" parent="1">
          <mxGeometry x="880" y="70" width="170" height="20" as="geometry" />
        </mxCell>
        <mxCell id="1Pz-vUFgm7rJ-cvzT1_4-4" value="" style="group" vertex="1" connectable="0" parent="1">
          <mxGeometry x="280" y="200" width="220" height="60" as="geometry" />
        </mxCell>
        <mxCell id="6C0aDu97zU6bo5BAWvWG-19" value="" style="whiteSpace=wrap;html=1;rounded=0;shadow=0;labelBackgroundColor=none;strokeWidth=1;fillColor=none;fontFamily=Verdana;fontSize=12;align=center;comic=1;" vertex="1" parent="1Pz-vUFgm7rJ-cvzT1_4-4">
          <mxGeometry width="220" height="60" as="geometry" />
        </mxCell>
        <mxCell id="1Pz-vUFgm7rJ-cvzT1_4-2" value="" style="ellipse;whiteSpace=wrap;html=1;aspect=fixed;strokeColor=#000000;" vertex="1" parent="1Pz-vUFgm7rJ-cvzT1_4-4">
          <mxGeometry x="12" y="14" width="35" height="35" as="geometry" />
        </mxCell>
        <mxCell id="1Pz-vUFgm7rJ-cvzT1_4-3" value="&lt;span style=&quot;font-family: &amp;#34;verdana&amp;#34;&quot;&gt;User Management&lt;/span&gt;" style="text;html=1;strokeColor=none;fillColor=none;align=center;verticalAlign=middle;whiteSpace=wrap;rounded=0;" vertex="1" parent="1Pz-vUFgm7rJ-cvzT1_4-4">
          <mxGeometry x="45" y="21.5" width="140" height="20" as="geometry" />
        </mxCell>
        <mxCell id="1Pz-vUFgm7rJ-cvzT1_4-5" value="" style="group" vertex="1" connectable="0" parent="1">
          <mxGeometry x="540" y="200" width="210" height="60" as="geometry" />
        </mxCell>
        <mxCell id="1Pz-vUFgm7rJ-cvzT1_4-6" value="" style="whiteSpace=wrap;html=1;rounded=0;shadow=0;labelBackgroundColor=none;strokeWidth=1;fillColor=none;fontFamily=Verdana;fontSize=12;align=center;comic=1;" vertex="1" parent="1Pz-vUFgm7rJ-cvzT1_4-5">
          <mxGeometry width="210.00000000000003" height="60" as="geometry" />
        </mxCell>
        <mxCell id="1Pz-vUFgm7rJ-cvzT1_4-7" value="" style="ellipse;whiteSpace=wrap;html=1;aspect=fixed;strokeColor=#000000;" vertex="1" parent="1Pz-vUFgm7rJ-cvzT1_4-5">
          <mxGeometry x="13.263157894736842" y="14" width="35" height="35" as="geometry" />
        </mxCell>
        <mxCell id="1Pz-vUFgm7rJ-cvzT1_4-8" value="&lt;span style=&quot;font-family: &amp;#34;verdana&amp;#34;&quot;&gt;Invoice Management&lt;/span&gt;" style="text;html=1;strokeColor=none;fillColor=none;align=center;verticalAlign=middle;whiteSpace=wrap;rounded=0;" vertex="1" parent="1Pz-vUFgm7rJ-cvzT1_4-5">
          <mxGeometry x="49.736842105263165" y="21.5" width="154.73684210526318" height="20" as="geometry" />
        </mxCell>
        <mxCell id="1Pz-vUFgm7rJ-cvzT1_4-9" value="" style="group" vertex="1" connectable="0" parent="1">
          <mxGeometry x="270" y="290" width="230" height="60" as="geometry" />
        </mxCell>
        <mxCell id="1Pz-vUFgm7rJ-cvzT1_4-10" value="" style="whiteSpace=wrap;html=1;rounded=0;shadow=0;labelBackgroundColor=none;strokeWidth=1;fillColor=none;fontFamily=Verdana;fontSize=12;align=center;comic=1;" vertex="1" parent="1Pz-vUFgm7rJ-cvzT1_4-9">
          <mxGeometry x="12" width="218" height="60" as="geometry" />
        </mxCell>
        <mxCell id="1Pz-vUFgm7rJ-cvzT1_4-11" value="" style="ellipse;whiteSpace=wrap;html=1;aspect=fixed;strokeColor=#000000;" vertex="1" parent="1Pz-vUFgm7rJ-cvzT1_4-9">
          <mxGeometry x="23" y="14" width="35" height="35" as="geometry" />
        </mxCell>
        <mxCell id="1Pz-vUFgm7rJ-cvzT1_4-12" value="&lt;span style=&quot;font-family: &amp;#34;verdana&amp;#34;&quot;&gt;Cheque Management&lt;/span&gt;" style="text;html=1;strokeColor=none;fillColor=none;align=center;verticalAlign=middle;whiteSpace=wrap;rounded=0;" vertex="1" parent="1Pz-vUFgm7rJ-cvzT1_4-9">
          <mxGeometry x="57" y="21.5" width="145" height="20" as="geometry" />
        </mxCell>
        <mxCell id="1Pz-vUFgm7rJ-cvzT1_4-13" value="" style="group" vertex="1" connectable="0" parent="1">
          <mxGeometry x="480" y="290" width="270" height="60" as="geometry" />
        </mxCell>
        <mxCell id="1Pz-vUFgm7rJ-cvzT1_4-14" value="" style="whiteSpace=wrap;html=1;rounded=0;shadow=0;labelBackgroundColor=none;strokeWidth=1;fillColor=none;fontFamily=Verdana;fontSize=12;align=center;comic=1;" vertex="1" parent="1Pz-vUFgm7rJ-cvzT1_4-13">
          <mxGeometry x="62" width="208" height="60" as="geometry" />
        </mxCell>
        <mxCell id="1Pz-vUFgm7rJ-cvzT1_4-15" value="" style="ellipse;whiteSpace=wrap;html=1;aspect=fixed;strokeColor=#000000;" vertex="1" parent="1">
          <mxGeometry x="553" y="302.5" width="35" height="35" as="geometry" />
        </mxCell>
        <mxCell id="1Pz-vUFgm7rJ-cvzT1_4-16" value="&lt;span style=&quot;font-family: &amp;#34;verdana&amp;#34;&quot;&gt;Rebates Management&lt;/span&gt;" style="text;html=1;strokeColor=none;fillColor=none;align=center;verticalAlign=middle;whiteSpace=wrap;rounded=0;" vertex="1" parent="1">
          <mxGeometry x="587" y="310" width="145" height="20" as="geometry" />
        </mxCell>
        <mxCell id="1Pz-vUFgm7rJ-cvzT1_4-17" value="" style="group" vertex="1" connectable="0" parent="1">
          <mxGeometry x="270" y="380" width="230" height="60" as="geometry" />
        </mxCell>
        <mxCell id="1Pz-vUFgm7rJ-cvzT1_4-18" value="" style="whiteSpace=wrap;html=1;rounded=0;shadow=0;labelBackgroundColor=none;strokeWidth=1;fillColor=none;fontFamily=Verdana;fontSize=12;align=center;comic=1;" vertex="1" parent="1Pz-vUFgm7rJ-cvzT1_4-17">
          <mxGeometry x="12" width="218" height="60" as="geometry" />
        </mxCell>
        <mxCell id="1Pz-vUFgm7rJ-cvzT1_4-19" value="" style="ellipse;whiteSpace=wrap;html=1;aspect=fixed;strokeColor=#000000;" vertex="1" parent="1Pz-vUFgm7rJ-cvzT1_4-17">
          <mxGeometry x="23" y="14" width="35" height="35" as="geometry" />
        </mxCell>
        <mxCell id="1Pz-vUFgm7rJ-cvzT1_4-20" value="&lt;span style=&quot;font-family: &amp;#34;verdana&amp;#34;&quot;&gt;Manage Rebates&lt;/span&gt;" style="text;html=1;strokeColor=none;fillColor=none;align=center;verticalAlign=middle;whiteSpace=wrap;rounded=0;" vertex="1" parent="1Pz-vUFgm7rJ-cvzT1_4-17">
          <mxGeometry x="57" y="21.5" width="145" height="20" as="geometry" />
        </mxCell>
        <mxCell id="1Pz-vUFgm7rJ-cvzT1_4-21" value="" style="group" vertex="1" connectable="0" parent="1">
          <mxGeometry x="530" y="380" width="220" height="60" as="geometry" />
        </mxCell>
        <mxCell id="1Pz-vUFgm7rJ-cvzT1_4-22" value="" style="whiteSpace=wrap;html=1;rounded=0;shadow=0;labelBackgroundColor=none;strokeWidth=1;fillColor=none;fontFamily=Verdana;fontSize=12;align=center;comic=1;" vertex="1" parent="1Pz-vUFgm7rJ-cvzT1_4-21">
          <mxGeometry x="11.478260869565219" width="208.52173913043478" height="60" as="geometry" />
        </mxCell>
        <mxCell id="1Pz-vUFgm7rJ-cvzT1_4-23" value="" style="ellipse;whiteSpace=wrap;html=1;aspect=fixed;strokeColor=#000000;" vertex="1" parent="1Pz-vUFgm7rJ-cvzT1_4-21">
          <mxGeometry x="22" y="14" width="33.47826086956522" height="33.47826086956522" as="geometry" />
        </mxCell>
        <mxCell id="1Pz-vUFgm7rJ-cvzT1_4-24" value="&lt;span style=&quot;font-family: &amp;#34;verdana&amp;#34;&quot;&gt;Customer Management&lt;/span&gt;" style="text;html=1;strokeColor=none;fillColor=none;align=center;verticalAlign=middle;whiteSpace=wrap;rounded=0;" vertex="1" parent="1Pz-vUFgm7rJ-cvzT1_4-21">
          <mxGeometry x="60" y="21.5" width="145.65" height="20" as="geometry" />
        </mxCell>
        <mxCell id="1Pz-vUFgm7rJ-cvzT1_4-25" value="" style="group" vertex="1" connectable="0" parent="1">
          <mxGeometry x="270" y="470" width="230" height="60" as="geometry" />
        </mxCell>
        <mxCell id="1Pz-vUFgm7rJ-cvzT1_4-26" value="" style="whiteSpace=wrap;html=1;rounded=0;shadow=0;labelBackgroundColor=none;strokeWidth=1;fillColor=none;fontFamily=Verdana;fontSize=12;align=center;comic=1;" vertex="1" parent="1Pz-vUFgm7rJ-cvzT1_4-25">
          <mxGeometry x="11.48" width="218.52" height="60" as="geometry" />
        </mxCell>
        <mxCell id="1Pz-vUFgm7rJ-cvzT1_4-27" value="" style="ellipse;whiteSpace=wrap;html=1;aspect=fixed;strokeColor=#000000;" vertex="1" parent="1Pz-vUFgm7rJ-cvzT1_4-25">
          <mxGeometry x="22" y="14" width="33.47826086956522" height="33.47826086956522" as="geometry" />
        </mxCell>
        <mxCell id="1Pz-vUFgm7rJ-cvzT1_4-28" value="&lt;span style=&quot;font-family: &amp;#34;verdana&amp;#34;&quot;&gt;Approval Management&lt;/span&gt;" style="text;html=1;strokeColor=none;fillColor=none;align=center;verticalAlign=middle;whiteSpace=wrap;rounded=0;" vertex="1" parent="1Pz-vUFgm7rJ-cvzT1_4-25">
          <mxGeometry x="60" y="21.5" width="145.65" height="20" as="geometry" />
        </mxCell>
        <mxCell id="1Pz-vUFgm7rJ-cvzT1_4-29" value="" style="group" vertex="1" connectable="0" parent="1">
          <mxGeometry x="530" y="470" width="230" height="60" as="geometry" />
        </mxCell>
        <mxCell id="1Pz-vUFgm7rJ-cvzT1_4-30" value="" style="whiteSpace=wrap;html=1;rounded=0;shadow=0;labelBackgroundColor=none;strokeWidth=1;fillColor=none;fontFamily=Verdana;fontSize=12;align=center;comic=1;" vertex="1" parent="1Pz-vUFgm7rJ-cvzT1_4-29">
          <mxGeometry x="11.48" width="218.52" height="60" as="geometry" />
        </mxCell>
        <mxCell id="1Pz-vUFgm7rJ-cvzT1_4-31" value="" style="ellipse;whiteSpace=wrap;html=1;aspect=fixed;strokeColor=#000000;" vertex="1" parent="1Pz-vUFgm7rJ-cvzT1_4-29">
          <mxGeometry x="22" y="14" width="33.47826086956522" height="33.47826086956522" as="geometry" />
        </mxCell>
        <mxCell id="1Pz-vUFgm7rJ-cvzT1_4-32" value="&lt;span style=&quot;font-family: &amp;#34;verdana&amp;#34;&quot;&gt;Bank Partner Management&lt;/span&gt;" style="text;html=1;strokeColor=none;fillColor=none;align=center;verticalAlign=middle;whiteSpace=wrap;rounded=0;" vertex="1" parent="1Pz-vUFgm7rJ-cvzT1_4-29">
          <mxGeometry x="50" y="20.74" width="180" height="20" as="geometry" />
        </mxCell>
        <mxCell id="1Pz-vUFgm7rJ-cvzT1_4-33" value="" style="whiteSpace=wrap;html=1;rounded=0;shadow=0;labelBackgroundColor=none;strokeWidth=1;fillColor=none;fontFamily=Verdana;fontSize=12;align=center;comic=1;" vertex="1" parent="1">
          <mxGeometry x="810" y="172" width="240" height="390" as="geometry" />
        </mxCell>
        <mxCell id="1Pz-vUFgm7rJ-cvzT1_4-38" value="" style="group" vertex="1" connectable="0" parent="1">
          <mxGeometry x="830" y="190" width="210" height="484.25" as="geometry" />
        </mxCell>
        <mxCell id="1Pz-vUFgm7rJ-cvzT1_4-39" value="" style="whiteSpace=wrap;html=1;rounded=0;shadow=0;labelBackgroundColor=none;strokeWidth=1;fillColor=none;fontFamily=Verdana;fontSize=12;align=center;comic=1;" vertex="1" parent="1Pz-vUFgm7rJ-cvzT1_4-38">
          <mxGeometry width="210.00000000000003" height="100" as="geometry" />
        </mxCell>
        <mxCell id="1Pz-vUFgm7rJ-cvzT1_4-42" value="&lt;font style=&quot;font-size: 16px&quot; color=&quot;#000000&quot;&gt;Analytics&lt;/font&gt;" style="strokeWidth=1;shadow=0;dashed=0;align=center;html=1;shape=mxgraph.mockup.text.callout;linkText=;textSize=17;textColor=#666666;callDir=SW;callStyle=line;fontSize=17;fontColor=#666666;align=left;verticalAlign=bottom;strokeColor=#666666;" vertex="1" parent="1Pz-vUFgm7rJ-cvzT1_4-38">
          <mxGeometry x="33.5" y="14.25" width="143" height="71.5" as="geometry" />
        </mxCell>
        <mxCell id="1Pz-vUFgm7rJ-cvzT1_4-43" value="" style="group" vertex="1" connectable="0" parent="1">
          <mxGeometry x="830" y="310" width="215" height="215" as="geometry" />
        </mxCell>
        <mxCell id="1Pz-vUFgm7rJ-cvzT1_4-44" value="" style="whiteSpace=wrap;html=1;rounded=0;shadow=0;labelBackgroundColor=none;strokeWidth=1;fillColor=none;fontFamily=Verdana;fontSize=12;align=center;comic=1;" vertex="1" parent="1Pz-vUFgm7rJ-cvzT1_4-43">
          <mxGeometry width="210" height="120" as="geometry" />
        </mxCell>
        <mxCell id="1Pz-vUFgm7rJ-cvzT1_4-126" value="" style="verticalLabelPosition=bottom;shadow=0;dashed=0;align=center;html=1;verticalAlign=top;strokeWidth=1;shape=mxgraph.mockup.graphics.simpleIcon;strokeColor=#999999;" vertex="1" parent="1Pz-vUFgm7rJ-cvzT1_4-43">
          <mxGeometry x="10" y="40" width="90" height="70" as="geometry" />
        </mxCell>
        <mxCell id="1Pz-vUFgm7rJ-cvzT1_4-127" value="" style="verticalLabelPosition=bottom;shadow=0;dashed=0;align=center;html=1;verticalAlign=top;strokeWidth=1;shape=mxgraph.mockup.graphics.simpleIcon;strokeColor=#999999;" vertex="1" parent="1Pz-vUFgm7rJ-cvzT1_4-43">
          <mxGeometry x="110" y="40" width="90" height="70" as="geometry" />
        </mxCell>
        <mxCell id="1Pz-vUFgm7rJ-cvzT1_4-128" value="&lt;font style=&quot;font-size: 16px&quot;&gt;Reports&lt;/font&gt;" style="text;html=1;strokeColor=none;fillColor=none;align=center;verticalAlign=middle;whiteSpace=wrap;rounded=0;" vertex="1" parent="1Pz-vUFgm7rJ-cvzT1_4-43">
          <mxGeometry y="10" width="80" height="20" as="geometry" />
        </mxCell>
        <mxCell id="1Pz-vUFgm7rJ-cvzT1_4-131" value="" style="group" vertex="1" connectable="0" parent="1">
          <mxGeometry x="830" y="450" width="260" height="180" as="geometry" />
        </mxCell>
        <mxCell id="1Pz-vUFgm7rJ-cvzT1_4-132" value="" style="whiteSpace=wrap;html=1;rounded=0;shadow=0;labelBackgroundColor=none;strokeWidth=1;fillColor=none;fontFamily=Verdana;fontSize=12;align=center;comic=1;" vertex="1" parent="1Pz-vUFgm7rJ-cvzT1_4-131">
          <mxGeometry width="210" height="100.46511627906978" as="geometry" />
        </mxCell>
        <mxCell id="1Pz-vUFgm7rJ-cvzT1_4-134" value="" style="verticalLabelPosition=bottom;shadow=0;dashed=0;align=center;html=1;verticalAlign=top;strokeWidth=1;shape=mxgraph.mockup.graphics.simpleIcon;strokeColor=#999999;" vertex="1" parent="1Pz-vUFgm7rJ-cvzT1_4-131">
          <mxGeometry x="130" y="33.48837209302326" width="70" height="50.23255813953489" as="geometry" />
        </mxCell>
        <mxCell id="1Pz-vUFgm7rJ-cvzT1_4-135" value="&lt;span style=&quot;font-size: 16px&quot;&gt;The Company&lt;/span&gt;" style="text;html=1;strokeColor=none;fillColor=none;align=left;verticalAlign=middle;whiteSpace=wrap;rounded=0;" vertex="1" parent="1Pz-vUFgm7rJ-cvzT1_4-131">
          <mxGeometry x="10" y="8.372093023255815" width="200" height="16.74418604651163" as="geometry" />
        </mxCell>
        <mxCell id="1Pz-vUFgm7rJ-cvzT1_4-136" value="Lorem ipsum dolor sit amet, consectetur adipisicing elit." style="text;spacingTop=-5;whiteSpace=wrap;html=1;align=left;fontSize=12;fontFamily=Helvetica;fillColor=none;strokeColor=none;" vertex="1" parent="1Pz-vUFgm7rJ-cvzT1_4-131">
          <mxGeometry x="10" y="33.48837209302326" width="110" height="50.23255813953489" as="geometry" />
        </mxCell>
        <mxCell id="1Pz-vUFgm7rJ-cvzT1_4-139" value="" style="group" vertex="1" connectable="0" parent="1">
          <mxGeometry x="51" y="130" width="100" height="225" as="geometry" />
        </mxCell>
        <mxCell id="1Pz-vUFgm7rJ-cvzT1_4-34" value="Menu 1" style="text;html=1;strokeColor=none;fillColor=none;align=center;verticalAlign=middle;whiteSpace=wrap;rounded=0;fontSize=15;" vertex="1" parent="1Pz-vUFgm7rJ-cvzT1_4-139">
          <mxGeometry width="100" height="28.125" as="geometry" />
        </mxCell>
        <mxCell id="1Pz-vUFgm7rJ-cvzT1_4-35" value="Menu 2" style="text;html=1;strokeColor=none;fillColor=none;align=center;verticalAlign=middle;whiteSpace=wrap;rounded=0;fontSize=15;" vertex="1" parent="1Pz-vUFgm7rJ-cvzT1_4-139">
          <mxGeometry y="50.625" width="100" height="28.125" as="geometry" />
        </mxCell>
        <mxCell id="1Pz-vUFgm7rJ-cvzT1_4-37" value="Menu 3" style="text;html=1;strokeColor=none;fillColor=none;align=center;verticalAlign=middle;whiteSpace=wrap;rounded=0;fontSize=15;" vertex="1" parent="1Pz-vUFgm7rJ-cvzT1_4-139">
          <mxGeometry y="99.84375" width="100" height="28.125" as="geometry" />
        </mxCell>
        <mxCell id="1Pz-vUFgm7rJ-cvzT1_4-137" value="Menu 4" style="text;html=1;strokeColor=none;fillColor=none;align=center;verticalAlign=middle;whiteSpace=wrap;rounded=0;fontSize=15;" vertex="1" parent="1Pz-vUFgm7rJ-cvzT1_4-139">
          <mxGeometry y="147.65625" width="100" height="28.125" as="geometry" />
        </mxCell>
        <mxCell id="1Pz-vUFgm7rJ-cvzT1_4-138" value="Menu 5" style="text;html=1;strokeColor=none;fillColor=none;align=center;verticalAlign=middle;whiteSpace=wrap;rounded=0;fontSize=15;" vertex="1" parent="1Pz-vUFgm7rJ-cvzT1_4-139">
          <mxGeometry y="196.875" width="100" height="28.125" as="geometry" />
        </mxCell>
        <mxCell id="1Pz-vUFgm7rJ-cvzT1_4-150" value="" style="ellipse;whiteSpace=wrap;html=1;aspect=fixed;strokeColor=#000000;fontSize=15;" vertex="1" parent="1Pz-vUFgm7rJ-cvzT1_4-139">
          <mxGeometry x="-8" y="4" width="20" height="20" as="geometry" />
        </mxCell>
        <mxCell id="1Pz-vUFgm7rJ-cvzT1_4-151" value="" style="ellipse;whiteSpace=wrap;html=1;aspect=fixed;strokeColor=#000000;fontSize=15;" vertex="1" parent="1Pz-vUFgm7rJ-cvzT1_4-139">
          <mxGeometry x="-8" y="58.75" width="20" height="20" as="geometry" />
        </mxCell>
        <mxCell id="1Pz-vUFgm7rJ-cvzT1_4-152" value="" style="ellipse;whiteSpace=wrap;html=1;aspect=fixed;strokeColor=#000000;fontSize=15;" vertex="1" parent="1Pz-vUFgm7rJ-cvzT1_4-139">
          <mxGeometry x="-8" y="102.5" width="20" height="20" as="geometry" />
        </mxCell>
        <mxCell id="1Pz-vUFgm7rJ-cvzT1_4-154" value="" style="ellipse;whiteSpace=wrap;html=1;aspect=fixed;strokeColor=#000000;fontSize=15;" vertex="1" parent="1Pz-vUFgm7rJ-cvzT1_4-139">
          <mxGeometry x="-8" y="200.93999999999994" width="20" height="20" as="geometry" />
        </mxCell>
        <mxCell id="1Pz-vUFgm7rJ-cvzT1_4-147" value="" style="line;strokeWidth=2;html=1;fontSize=15;" vertex="1" parent="1">
          <mxGeometry x="258" y="60" width="20" height="10" as="geometry" />
        </mxCell>
        <mxCell id="1Pz-vUFgm7rJ-cvzT1_4-148" value="" style="line;strokeWidth=2;html=1;fontSize=15;" vertex="1" parent="1">
          <mxGeometry x="258" y="67" width="20" height="10" as="geometry" />
        </mxCell>
        <mxCell id="1Pz-vUFgm7rJ-cvzT1_4-149" value="" style="line;strokeWidth=2;html=1;fontSize=15;" vertex="1" parent="1">
          <mxGeometry x="258" y="74" width="20" height="10" as="geometry" />
        </mxCell>
        <mxCell id="1Pz-vUFgm7rJ-cvzT1_4-153" value="" style="ellipse;whiteSpace=wrap;html=1;aspect=fixed;strokeColor=#000000;fontSize=15;" vertex="1" parent="1">
          <mxGeometry x="43" y="281.71999999999997" width="20" height="20" as="geometry" />
        </mxCell>
        <mxCell id="1Pz-vUFgm7rJ-cvzT1_4-156" value="" style="shape=actor;whiteSpace=wrap;html=1;strokeColor=#000000;fontSize=15;" vertex="1" parent="1">
          <mxGeometry x="1000" y="50" width="40" height="50" as="geometry" />
        </mxCell>
      </root>
    </mxGraphModel>
  </diagram>
  <diagram id="9RcxHf2euHuzPn7DjiLM" name="invoice">
    <mxGraphModel dx="1038" dy="548" grid="1" gridSize="10" guides="1" tooltips="1" connect="1" arrows="1" fold="1" page="1" pageScale="1" pageWidth="850" pageHeight="1100" math="0" shadow="0">
      <root>
        <mxCell id="jYbHlTsF3drl6SXuO_eB-0" />
        <mxCell id="jYbHlTsF3drl6SXuO_eB-1" parent="jYbHlTsF3drl6SXuO_eB-0" />
        <mxCell id="cC_H9VtzJfK9VuSP7iF7-0" value="" style="whiteSpace=wrap;html=1;rounded=0;shadow=0;labelBackgroundColor=none;strokeColor=#000000;strokeWidth=1;fillColor=none;fontFamily=Verdana;fontSize=12;fontColor=#000000;align=center;comic=1;" vertex="1" parent="jYbHlTsF3drl6SXuO_eB-1">
          <mxGeometry x="20" y="20" width="1060" height="570" as="geometry" />
        </mxCell>
        <mxCell id="cC_H9VtzJfK9VuSP7iF7-1" value="Logo" style="whiteSpace=wrap;html=1;rounded=0;shadow=0;labelBackgroundColor=none;strokeWidth=1;fontFamily=Verdana;fontSize=28;align=center;comic=1;" vertex="1" parent="jYbHlTsF3drl6SXuO_eB-1">
          <mxGeometry x="40" y="50" width="180" height="50" as="geometry" />
        </mxCell>
        <mxCell id="cC_H9VtzJfK9VuSP7iF7-2" value="" style="line;strokeWidth=1;html=1;rounded=0;shadow=0;labelBackgroundColor=none;fillColor=none;fontFamily=Verdana;fontSize=14;fontColor=#000000;align=center;comic=1;rotation=90;" vertex="1" parent="jYbHlTsF3drl6SXuO_eB-1">
          <mxGeometry x="-45" y="302" width="570" height="10" as="geometry" />
        </mxCell>
        <mxCell id="cC_H9VtzJfK9VuSP7iF7-3" value="" style="whiteSpace=wrap;html=1;rounded=0;shadow=0;labelBackgroundColor=none;strokeWidth=1;fillColor=none;fontFamily=Verdana;fontSize=12;align=center;comic=1;" vertex="1" parent="jYbHlTsF3drl6SXuO_eB-1">
          <mxGeometry x="260" y="170" width="520" height="360" as="geometry" />
        </mxCell>
        <mxCell id="cC_H9VtzJfK9VuSP7iF7-4" value="Icon" style="text;html=1;points=[];align=left;verticalAlign=top;spacingTop=-4;fontSize=14;fontFamily=Verdana" vertex="1" parent="jYbHlTsF3drl6SXuO_eB-1">
          <mxGeometry x="940" y="70" width="170" height="20" as="geometry" />
        </mxCell>
        <mxCell id="cC_H9VtzJfK9VuSP7iF7-5" value="Icon" style="text;html=1;points=[];align=left;verticalAlign=top;spacingTop=-4;fontSize=14;fontFamily=Verdana" vertex="1" parent="jYbHlTsF3drl6SXuO_eB-1">
          <mxGeometry x="880" y="70" width="170" height="20" as="geometry" />
        </mxCell>
        <mxCell id="cC_H9VtzJfK9VuSP7iF7-6" value="" style="group" vertex="1" connectable="0" parent="jYbHlTsF3drl6SXuO_eB-1">
          <mxGeometry x="820" y="170" width="220" height="60" as="geometry" />
        </mxCell>
        <mxCell id="cC_H9VtzJfK9VuSP7iF7-7" value="" style="whiteSpace=wrap;html=1;rounded=0;shadow=0;labelBackgroundColor=none;strokeWidth=1;fillColor=none;fontFamily=Verdana;fontSize=12;align=center;comic=1;" vertex="1" parent="cC_H9VtzJfK9VuSP7iF7-6">
          <mxGeometry width="220" height="60" as="geometry" />
        </mxCell>
        <mxCell id="cC_H9VtzJfK9VuSP7iF7-8" value="" style="ellipse;whiteSpace=wrap;html=1;aspect=fixed;strokeColor=#000000;" vertex="1" parent="cC_H9VtzJfK9VuSP7iF7-6">
          <mxGeometry x="12" y="14" width="35" height="35" as="geometry" />
        </mxCell>
        <mxCell id="cC_H9VtzJfK9VuSP7iF7-9" value="&lt;span style=&quot;font-family: &amp;#34;verdana&amp;#34;&quot;&gt;Create Invoice&lt;/span&gt;" style="text;html=1;strokeColor=none;fillColor=none;align=center;verticalAlign=middle;whiteSpace=wrap;rounded=0;" vertex="1" parent="cC_H9VtzJfK9VuSP7iF7-6">
          <mxGeometry x="45" y="21.5" width="140" height="20" as="geometry" />
        </mxCell>
        <mxCell id="cC_H9VtzJfK9VuSP7iF7-52" value="" style="group" vertex="1" connectable="0" parent="jYbHlTsF3drl6SXuO_eB-1">
          <mxGeometry x="51" y="130" width="100" height="225" as="geometry" />
        </mxCell>
        <mxCell id="cC_H9VtzJfK9VuSP7iF7-53" value="Menu 1" style="text;html=1;strokeColor=none;fillColor=none;align=center;verticalAlign=middle;whiteSpace=wrap;rounded=0;fontSize=15;" vertex="1" parent="cC_H9VtzJfK9VuSP7iF7-52">
          <mxGeometry width="100" height="28.125" as="geometry" />
        </mxCell>
        <mxCell id="cC_H9VtzJfK9VuSP7iF7-54" value="Menu 2" style="text;html=1;strokeColor=none;fillColor=none;align=center;verticalAlign=middle;whiteSpace=wrap;rounded=0;fontSize=15;" vertex="1" parent="cC_H9VtzJfK9VuSP7iF7-52">
          <mxGeometry y="50.625" width="100" height="28.125" as="geometry" />
        </mxCell>
        <mxCell id="cC_H9VtzJfK9VuSP7iF7-55" value="Menu 3" style="text;html=1;strokeColor=none;fillColor=none;align=center;verticalAlign=middle;whiteSpace=wrap;rounded=0;fontSize=15;" vertex="1" parent="cC_H9VtzJfK9VuSP7iF7-52">
          <mxGeometry y="99.84375" width="100" height="28.125" as="geometry" />
        </mxCell>
        <mxCell id="cC_H9VtzJfK9VuSP7iF7-56" value="Menu 4" style="text;html=1;strokeColor=none;fillColor=none;align=center;verticalAlign=middle;whiteSpace=wrap;rounded=0;fontSize=15;" vertex="1" parent="cC_H9VtzJfK9VuSP7iF7-52">
          <mxGeometry y="147.65625" width="100" height="28.125" as="geometry" />
        </mxCell>
        <mxCell id="cC_H9VtzJfK9VuSP7iF7-57" value="Menu 5" style="text;html=1;strokeColor=none;fillColor=none;align=center;verticalAlign=middle;whiteSpace=wrap;rounded=0;fontSize=15;" vertex="1" parent="cC_H9VtzJfK9VuSP7iF7-52">
          <mxGeometry y="196.875" width="100" height="28.125" as="geometry" />
        </mxCell>
        <mxCell id="cC_H9VtzJfK9VuSP7iF7-58" value="" style="ellipse;whiteSpace=wrap;html=1;aspect=fixed;strokeColor=#000000;fontSize=15;" vertex="1" parent="cC_H9VtzJfK9VuSP7iF7-52">
          <mxGeometry x="-8" y="4" width="20" height="20" as="geometry" />
        </mxCell>
        <mxCell id="cC_H9VtzJfK9VuSP7iF7-59" value="" style="ellipse;whiteSpace=wrap;html=1;aspect=fixed;strokeColor=#000000;fontSize=15;" vertex="1" parent="cC_H9VtzJfK9VuSP7iF7-52">
          <mxGeometry x="-8" y="58.75" width="20" height="20" as="geometry" />
        </mxCell>
        <mxCell id="cC_H9VtzJfK9VuSP7iF7-60" value="" style="ellipse;whiteSpace=wrap;html=1;aspect=fixed;strokeColor=#000000;fontSize=15;" vertex="1" parent="cC_H9VtzJfK9VuSP7iF7-52">
          <mxGeometry x="-8" y="102.5" width="20" height="20" as="geometry" />
        </mxCell>
        <mxCell id="cC_H9VtzJfK9VuSP7iF7-61" value="" style="ellipse;whiteSpace=wrap;html=1;aspect=fixed;strokeColor=#000000;fontSize=15;" vertex="1" parent="cC_H9VtzJfK9VuSP7iF7-52">
          <mxGeometry x="-8" y="200.93999999999994" width="20" height="20" as="geometry" />
        </mxCell>
        <mxCell id="cC_H9VtzJfK9VuSP7iF7-62" value="" style="line;strokeWidth=2;html=1;fontSize=15;" vertex="1" parent="jYbHlTsF3drl6SXuO_eB-1">
          <mxGeometry x="258" y="60" width="20" height="10" as="geometry" />
        </mxCell>
        <mxCell id="cC_H9VtzJfK9VuSP7iF7-63" value="" style="line;strokeWidth=2;html=1;fontSize=15;" vertex="1" parent="jYbHlTsF3drl6SXuO_eB-1">
          <mxGeometry x="258" y="67" width="20" height="10" as="geometry" />
        </mxCell>
        <mxCell id="cC_H9VtzJfK9VuSP7iF7-64" value="" style="line;strokeWidth=2;html=1;fontSize=15;" vertex="1" parent="jYbHlTsF3drl6SXuO_eB-1">
          <mxGeometry x="258" y="74" width="20" height="10" as="geometry" />
        </mxCell>
        <mxCell id="cC_H9VtzJfK9VuSP7iF7-65" value="" style="ellipse;whiteSpace=wrap;html=1;aspect=fixed;strokeColor=#000000;fontSize=15;" vertex="1" parent="jYbHlTsF3drl6SXuO_eB-1">
          <mxGeometry x="43" y="281.71999999999997" width="20" height="20" as="geometry" />
        </mxCell>
        <mxCell id="cC_H9VtzJfK9VuSP7iF7-66" value="" style="shape=actor;whiteSpace=wrap;html=1;strokeColor=#000000;fontSize=15;" vertex="1" parent="jYbHlTsF3drl6SXuO_eB-1">
          <mxGeometry x="1000" y="50" width="40" height="50" as="geometry" />
        </mxCell>
        <mxCell id="cC_H9VtzJfK9VuSP7iF7-67" value="" style="group" vertex="1" connectable="0" parent="jYbHlTsF3drl6SXuO_eB-1">
          <mxGeometry x="820" y="247" width="220" height="60" as="geometry" />
        </mxCell>
        <mxCell id="cC_H9VtzJfK9VuSP7iF7-68" value="" style="whiteSpace=wrap;html=1;rounded=0;shadow=0;labelBackgroundColor=none;strokeWidth=1;fillColor=none;fontFamily=Verdana;fontSize=12;align=center;comic=1;" vertex="1" parent="cC_H9VtzJfK9VuSP7iF7-67">
          <mxGeometry width="220" height="60" as="geometry" />
        </mxCell>
        <mxCell id="cC_H9VtzJfK9VuSP7iF7-69" value="" style="ellipse;whiteSpace=wrap;html=1;aspect=fixed;strokeColor=#000000;" vertex="1" parent="cC_H9VtzJfK9VuSP7iF7-67">
          <mxGeometry x="12" y="14" width="35" height="35" as="geometry" />
        </mxCell>
        <mxCell id="cC_H9VtzJfK9VuSP7iF7-70" value="&lt;span style=&quot;font-family: &amp;#34;verdana&amp;#34;&quot;&gt;Review Invoice&lt;/span&gt;" style="text;html=1;strokeColor=none;fillColor=none;align=center;verticalAlign=middle;whiteSpace=wrap;rounded=0;" vertex="1" parent="cC_H9VtzJfK9VuSP7iF7-67">
          <mxGeometry x="45" y="21.5" width="140" height="20" as="geometry" />
        </mxCell>
        <mxCell id="cC_H9VtzJfK9VuSP7iF7-71" value="" style="group" vertex="1" connectable="0" parent="jYbHlTsF3drl6SXuO_eB-1">
          <mxGeometry x="820" y="320" width="220" height="60" as="geometry" />
        </mxCell>
        <mxCell id="cC_H9VtzJfK9VuSP7iF7-72" value="" style="whiteSpace=wrap;html=1;rounded=0;shadow=0;labelBackgroundColor=none;strokeWidth=1;fillColor=none;fontFamily=Verdana;fontSize=12;align=center;comic=1;" vertex="1" parent="cC_H9VtzJfK9VuSP7iF7-71">
          <mxGeometry width="220" height="60" as="geometry" />
        </mxCell>
        <mxCell id="cC_H9VtzJfK9VuSP7iF7-73" value="" style="ellipse;whiteSpace=wrap;html=1;aspect=fixed;strokeColor=#000000;" vertex="1" parent="cC_H9VtzJfK9VuSP7iF7-71">
          <mxGeometry x="12" y="14" width="35" height="35" as="geometry" />
        </mxCell>
        <mxCell id="cC_H9VtzJfK9VuSP7iF7-74" value="&lt;span style=&quot;font-family: &amp;#34;verdana&amp;#34;&quot;&gt;Cancel Invoice&lt;/span&gt;" style="text;html=1;strokeColor=none;fillColor=none;align=center;verticalAlign=middle;whiteSpace=wrap;rounded=0;" vertex="1" parent="cC_H9VtzJfK9VuSP7iF7-71">
          <mxGeometry x="45" y="21.5" width="140" height="20" as="geometry" />
        </mxCell>
        <mxCell id="cC_H9VtzJfK9VuSP7iF7-75" value="" style="group" vertex="1" connectable="0" parent="jYbHlTsF3drl6SXuO_eB-1">
          <mxGeometry x="820" y="395" width="220" height="60" as="geometry" />
        </mxCell>
        <mxCell id="cC_H9VtzJfK9VuSP7iF7-76" value="" style="whiteSpace=wrap;html=1;rounded=0;shadow=0;labelBackgroundColor=none;strokeWidth=1;fillColor=none;fontFamily=Verdana;fontSize=12;align=center;comic=1;" vertex="1" parent="cC_H9VtzJfK9VuSP7iF7-75">
          <mxGeometry width="220" height="60" as="geometry" />
        </mxCell>
        <mxCell id="cC_H9VtzJfK9VuSP7iF7-77" value="" style="ellipse;whiteSpace=wrap;html=1;aspect=fixed;strokeColor=#000000;" vertex="1" parent="cC_H9VtzJfK9VuSP7iF7-75">
          <mxGeometry x="12" y="14" width="35" height="35" as="geometry" />
        </mxCell>
        <mxCell id="cC_H9VtzJfK9VuSP7iF7-78" value="&lt;span style=&quot;font-family: &amp;#34;verdana&amp;#34;&quot;&gt;Asign Rebates&lt;/span&gt;" style="text;html=1;strokeColor=none;fillColor=none;align=center;verticalAlign=middle;whiteSpace=wrap;rounded=0;" vertex="1" parent="cC_H9VtzJfK9VuSP7iF7-75">
          <mxGeometry x="45" y="21.5" width="140" height="20" as="geometry" />
        </mxCell>
        <mxCell id="cC_H9VtzJfK9VuSP7iF7-79" value="" style="group" vertex="1" connectable="0" parent="jYbHlTsF3drl6SXuO_eB-1">
          <mxGeometry x="820" y="470" width="220" height="60" as="geometry" />
        </mxCell>
        <mxCell id="cC_H9VtzJfK9VuSP7iF7-80" value="" style="whiteSpace=wrap;html=1;rounded=0;shadow=0;labelBackgroundColor=none;strokeWidth=1;fillColor=none;fontFamily=Verdana;fontSize=12;align=center;comic=1;" vertex="1" parent="cC_H9VtzJfK9VuSP7iF7-79">
          <mxGeometry width="220" height="60" as="geometry" />
        </mxCell>
        <mxCell id="cC_H9VtzJfK9VuSP7iF7-81" value="" style="ellipse;whiteSpace=wrap;html=1;aspect=fixed;strokeColor=#000000;" vertex="1" parent="cC_H9VtzJfK9VuSP7iF7-79">
          <mxGeometry x="12" y="14" width="35" height="35" as="geometry" />
        </mxCell>
        <mxCell id="cC_H9VtzJfK9VuSP7iF7-82" value="&lt;font face=&quot;verdana&quot;&gt;Delivery Confirmation&lt;/font&gt;" style="text;html=1;strokeColor=none;fillColor=none;align=center;verticalAlign=middle;whiteSpace=wrap;rounded=0;" vertex="1" parent="cC_H9VtzJfK9VuSP7iF7-79">
          <mxGeometry x="45" y="21.5" width="155" height="20" as="geometry" />
        </mxCell>
        <mxCell id="cC_H9VtzJfK9VuSP7iF7-83" value="&lt;font face=&quot;verdana&quot; style=&quot;font-size: 14px;&quot;&gt;&lt;i style=&quot;font-size: 14px;&quot;&gt;Invoice No. 12345&lt;/i&gt;&lt;/font&gt;" style="text;html=1;strokeColor=none;fillColor=none;align=center;verticalAlign=middle;whiteSpace=wrap;rounded=0;fontStyle=1;fontSize=14;" vertex="1" parent="jYbHlTsF3drl6SXuO_eB-1">
          <mxGeometry x="270" y="190" width="155" height="20" as="geometry" />
        </mxCell>
      </root>
    </mxGraphModel>
  </diagram>
  <diagram id="DWiUXCZEWzzBqb4Ya_aI" name="Payment">
    <mxGraphModel dx="1038" dy="548" grid="1" gridSize="10" guides="1" tooltips="1" connect="1" arrows="1" fold="1" page="1" pageScale="1" pageWidth="850" pageHeight="1100" math="0" shadow="0">
      <root>
        <mxCell id="8TQKE4w585ppP9CMNDy4-0" />
        <mxCell id="8TQKE4w585ppP9CMNDy4-1" parent="8TQKE4w585ppP9CMNDy4-0" />
        <mxCell id="b3EC32EAvZj1WRJHVYOg-0" value="" style="whiteSpace=wrap;html=1;rounded=0;shadow=0;labelBackgroundColor=none;strokeColor=#000000;strokeWidth=1;fillColor=none;fontFamily=Verdana;fontSize=12;fontColor=#000000;align=center;comic=1;" vertex="1" parent="8TQKE4w585ppP9CMNDy4-1">
          <mxGeometry x="20" y="20" width="1060" height="570" as="geometry" />
        </mxCell>
        <mxCell id="b3EC32EAvZj1WRJHVYOg-1" value="Logo" style="whiteSpace=wrap;html=1;rounded=0;shadow=0;labelBackgroundColor=none;strokeWidth=1;fontFamily=Verdana;fontSize=28;align=center;comic=1;" vertex="1" parent="8TQKE4w585ppP9CMNDy4-1">
          <mxGeometry x="40" y="50" width="180" height="50" as="geometry" />
        </mxCell>
        <mxCell id="b3EC32EAvZj1WRJHVYOg-2" value="" style="line;strokeWidth=1;html=1;rounded=0;shadow=0;labelBackgroundColor=none;fillColor=none;fontFamily=Verdana;fontSize=14;fontColor=#000000;align=center;comic=1;rotation=90;" vertex="1" parent="8TQKE4w585ppP9CMNDy4-1">
          <mxGeometry x="-45" y="302" width="570" height="10" as="geometry" />
        </mxCell>
        <mxCell id="b3EC32EAvZj1WRJHVYOg-3" value="" style="whiteSpace=wrap;html=1;rounded=0;shadow=0;labelBackgroundColor=none;strokeWidth=1;fillColor=none;fontFamily=Verdana;fontSize=12;align=center;comic=1;" vertex="1" parent="8TQKE4w585ppP9CMNDy4-1">
          <mxGeometry x="260" y="170" width="520" height="360" as="geometry" />
        </mxCell>
        <mxCell id="b3EC32EAvZj1WRJHVYOg-4" value="Icon" style="text;html=1;points=[];align=left;verticalAlign=top;spacingTop=-4;fontSize=14;fontFamily=Verdana" vertex="1" parent="8TQKE4w585ppP9CMNDy4-1">
          <mxGeometry x="940" y="70" width="170" height="20" as="geometry" />
        </mxCell>
        <mxCell id="b3EC32EAvZj1WRJHVYOg-5" value="Icon" style="text;html=1;points=[];align=left;verticalAlign=top;spacingTop=-4;fontSize=14;fontFamily=Verdana" vertex="1" parent="8TQKE4w585ppP9CMNDy4-1">
          <mxGeometry x="880" y="70" width="170" height="20" as="geometry" />
        </mxCell>
        <mxCell id="b3EC32EAvZj1WRJHVYOg-6" value="" style="group" vertex="1" connectable="0" parent="8TQKE4w585ppP9CMNDy4-1">
          <mxGeometry x="820" y="170" width="220" height="60" as="geometry" />
        </mxCell>
        <mxCell id="b3EC32EAvZj1WRJHVYOg-7" value="" style="whiteSpace=wrap;html=1;rounded=0;shadow=0;labelBackgroundColor=none;strokeWidth=1;fillColor=none;fontFamily=Verdana;fontSize=12;align=center;comic=1;" vertex="1" parent="b3EC32EAvZj1WRJHVYOg-6">
          <mxGeometry width="220" height="60" as="geometry" />
        </mxCell>
        <mxCell id="b3EC32EAvZj1WRJHVYOg-8" value="" style="ellipse;whiteSpace=wrap;html=1;aspect=fixed;strokeColor=#000000;" vertex="1" parent="b3EC32EAvZj1WRJHVYOg-6">
          <mxGeometry x="12" y="14" width="35" height="35" as="geometry" />
        </mxCell>
        <mxCell id="b3EC32EAvZj1WRJHVYOg-9" value="&lt;span style=&quot;font-family: &amp;#34;verdana&amp;#34;&quot;&gt;View Payment History&lt;/span&gt;" style="text;html=1;strokeColor=none;fillColor=none;align=center;verticalAlign=middle;whiteSpace=wrap;rounded=0;" vertex="1" parent="b3EC32EAvZj1WRJHVYOg-6">
          <mxGeometry x="45" y="21.5" width="155" height="20" as="geometry" />
        </mxCell>
        <mxCell id="b3EC32EAvZj1WRJHVYOg-10" value="" style="group" vertex="1" connectable="0" parent="8TQKE4w585ppP9CMNDy4-1">
          <mxGeometry x="51" y="130" width="100" height="225" as="geometry" />
        </mxCell>
        <mxCell id="b3EC32EAvZj1WRJHVYOg-11" value="Menu 1" style="text;html=1;strokeColor=none;fillColor=none;align=center;verticalAlign=middle;whiteSpace=wrap;rounded=0;fontSize=15;" vertex="1" parent="b3EC32EAvZj1WRJHVYOg-10">
          <mxGeometry width="100" height="28.125" as="geometry" />
        </mxCell>
        <mxCell id="b3EC32EAvZj1WRJHVYOg-12" value="Menu 2" style="text;html=1;strokeColor=none;fillColor=none;align=center;verticalAlign=middle;whiteSpace=wrap;rounded=0;fontSize=15;" vertex="1" parent="b3EC32EAvZj1WRJHVYOg-10">
          <mxGeometry y="50.625" width="100" height="28.125" as="geometry" />
        </mxCell>
        <mxCell id="b3EC32EAvZj1WRJHVYOg-13" value="Menu 3" style="text;html=1;strokeColor=none;fillColor=none;align=center;verticalAlign=middle;whiteSpace=wrap;rounded=0;fontSize=15;" vertex="1" parent="b3EC32EAvZj1WRJHVYOg-10">
          <mxGeometry y="99.84375" width="100" height="28.125" as="geometry" />
        </mxCell>
        <mxCell id="b3EC32EAvZj1WRJHVYOg-14" value="Menu 4" style="text;html=1;strokeColor=none;fillColor=none;align=center;verticalAlign=middle;whiteSpace=wrap;rounded=0;fontSize=15;" vertex="1" parent="b3EC32EAvZj1WRJHVYOg-10">
          <mxGeometry y="147.65625" width="100" height="28.125" as="geometry" />
        </mxCell>
        <mxCell id="b3EC32EAvZj1WRJHVYOg-15" value="Menu 5" style="text;html=1;strokeColor=none;fillColor=none;align=center;verticalAlign=middle;whiteSpace=wrap;rounded=0;fontSize=15;" vertex="1" parent="b3EC32EAvZj1WRJHVYOg-10">
          <mxGeometry y="196.875" width="100" height="28.125" as="geometry" />
        </mxCell>
        <mxCell id="b3EC32EAvZj1WRJHVYOg-16" value="" style="ellipse;whiteSpace=wrap;html=1;aspect=fixed;strokeColor=#000000;fontSize=15;" vertex="1" parent="b3EC32EAvZj1WRJHVYOg-10">
          <mxGeometry x="-8" y="4" width="20" height="20" as="geometry" />
        </mxCell>
        <mxCell id="b3EC32EAvZj1WRJHVYOg-17" value="" style="ellipse;whiteSpace=wrap;html=1;aspect=fixed;strokeColor=#000000;fontSize=15;" vertex="1" parent="b3EC32EAvZj1WRJHVYOg-10">
          <mxGeometry x="-8" y="58.75" width="20" height="20" as="geometry" />
        </mxCell>
        <mxCell id="b3EC32EAvZj1WRJHVYOg-18" value="" style="ellipse;whiteSpace=wrap;html=1;aspect=fixed;strokeColor=#000000;fontSize=15;" vertex="1" parent="b3EC32EAvZj1WRJHVYOg-10">
          <mxGeometry x="-8" y="102.5" width="20" height="20" as="geometry" />
        </mxCell>
        <mxCell id="b3EC32EAvZj1WRJHVYOg-19" value="" style="ellipse;whiteSpace=wrap;html=1;aspect=fixed;strokeColor=#000000;fontSize=15;" vertex="1" parent="b3EC32EAvZj1WRJHVYOg-10">
          <mxGeometry x="-8" y="200.93999999999994" width="20" height="20" as="geometry" />
        </mxCell>
        <mxCell id="b3EC32EAvZj1WRJHVYOg-20" value="" style="line;strokeWidth=2;html=1;fontSize=15;" vertex="1" parent="8TQKE4w585ppP9CMNDy4-1">
          <mxGeometry x="258" y="60" width="20" height="10" as="geometry" />
        </mxCell>
        <mxCell id="b3EC32EAvZj1WRJHVYOg-21" value="" style="line;strokeWidth=2;html=1;fontSize=15;" vertex="1" parent="8TQKE4w585ppP9CMNDy4-1">
          <mxGeometry x="258" y="67" width="20" height="10" as="geometry" />
        </mxCell>
        <mxCell id="b3EC32EAvZj1WRJHVYOg-22" value="" style="line;strokeWidth=2;html=1;fontSize=15;" vertex="1" parent="8TQKE4w585ppP9CMNDy4-1">
          <mxGeometry x="258" y="74" width="20" height="10" as="geometry" />
        </mxCell>
        <mxCell id="b3EC32EAvZj1WRJHVYOg-23" value="" style="ellipse;whiteSpace=wrap;html=1;aspect=fixed;strokeColor=#000000;fontSize=15;" vertex="1" parent="8TQKE4w585ppP9CMNDy4-1">
          <mxGeometry x="43" y="281.71999999999997" width="20" height="20" as="geometry" />
        </mxCell>
        <mxCell id="b3EC32EAvZj1WRJHVYOg-24" value="" style="shape=actor;whiteSpace=wrap;html=1;strokeColor=#000000;fontSize=15;" vertex="1" parent="8TQKE4w585ppP9CMNDy4-1">
          <mxGeometry x="1000" y="50" width="40" height="50" as="geometry" />
        </mxCell>
        <mxCell id="b3EC32EAvZj1WRJHVYOg-25" value="" style="group" vertex="1" connectable="0" parent="8TQKE4w585ppP9CMNDy4-1">
          <mxGeometry x="820" y="247" width="220" height="60" as="geometry" />
        </mxCell>
        <mxCell id="b3EC32EAvZj1WRJHVYOg-26" value="" style="whiteSpace=wrap;html=1;rounded=0;shadow=0;labelBackgroundColor=none;strokeWidth=1;fillColor=none;fontFamily=Verdana;fontSize=12;align=center;comic=1;" vertex="1" parent="b3EC32EAvZj1WRJHVYOg-25">
          <mxGeometry width="220" height="60" as="geometry" />
        </mxCell>
        <mxCell id="b3EC32EAvZj1WRJHVYOg-27" value="" style="ellipse;whiteSpace=wrap;html=1;aspect=fixed;strokeColor=#000000;" vertex="1" parent="b3EC32EAvZj1WRJHVYOg-25">
          <mxGeometry x="12" y="14" width="35" height="35" as="geometry" />
        </mxCell>
        <mxCell id="b3EC32EAvZj1WRJHVYOg-28" value="&lt;span style=&quot;font-family: &amp;#34;verdana&amp;#34;&quot;&gt;Receive Check Image&lt;/span&gt;" style="text;html=1;strokeColor=none;fillColor=none;align=center;verticalAlign=middle;whiteSpace=wrap;rounded=0;" vertex="1" parent="b3EC32EAvZj1WRJHVYOg-25">
          <mxGeometry x="45" y="21.5" width="155" height="20" as="geometry" />
        </mxCell>
        <mxCell id="b3EC32EAvZj1WRJHVYOg-29" value="" style="group" vertex="1" connectable="0" parent="8TQKE4w585ppP9CMNDy4-1">
          <mxGeometry x="820" y="320" width="220" height="60" as="geometry" />
        </mxCell>
        <mxCell id="b3EC32EAvZj1WRJHVYOg-30" value="" style="whiteSpace=wrap;html=1;rounded=0;shadow=0;labelBackgroundColor=none;strokeWidth=1;fillColor=none;fontFamily=Verdana;fontSize=12;align=center;comic=1;" vertex="1" parent="b3EC32EAvZj1WRJHVYOg-29">
          <mxGeometry width="220" height="60" as="geometry" />
        </mxCell>
        <mxCell id="b3EC32EAvZj1WRJHVYOg-31" value="" style="ellipse;whiteSpace=wrap;html=1;aspect=fixed;strokeColor=#000000;" vertex="1" parent="b3EC32EAvZj1WRJHVYOg-29">
          <mxGeometry x="12" y="14" width="35" height="35" as="geometry" />
        </mxCell>
        <mxCell id="b3EC32EAvZj1WRJHVYOg-32" value="&lt;span style=&quot;font-family: &amp;#34;verdana&amp;#34;&quot;&gt;Receive Bank Deposit Image&lt;/span&gt;" style="text;html=1;strokeColor=none;fillColor=none;align=center;verticalAlign=middle;whiteSpace=wrap;rounded=0;" vertex="1" parent="b3EC32EAvZj1WRJHVYOg-29">
          <mxGeometry x="45" y="21.5" width="155" height="20" as="geometry" />
        </mxCell>
        <mxCell id="b3EC32EAvZj1WRJHVYOg-33" value="" style="group" vertex="1" connectable="0" parent="8TQKE4w585ppP9CMNDy4-1">
          <mxGeometry x="820" y="395" width="220" height="60" as="geometry" />
        </mxCell>
        <mxCell id="b3EC32EAvZj1WRJHVYOg-34" value="" style="whiteSpace=wrap;html=1;rounded=0;shadow=0;labelBackgroundColor=none;strokeWidth=1;fillColor=none;fontFamily=Verdana;fontSize=12;align=center;comic=1;" vertex="1" parent="b3EC32EAvZj1WRJHVYOg-33">
          <mxGeometry width="220" height="60" as="geometry" />
        </mxCell>
        <mxCell id="b3EC32EAvZj1WRJHVYOg-35" value="" style="ellipse;whiteSpace=wrap;html=1;aspect=fixed;strokeColor=#000000;" vertex="1" parent="b3EC32EAvZj1WRJHVYOg-33">
          <mxGeometry x="12" y="14" width="35" height="35" as="geometry" />
        </mxCell>
        <mxCell id="b3EC32EAvZj1WRJHVYOg-36" value="&lt;span style=&quot;font-family: &amp;#34;verdana&amp;#34;&quot;&gt;Auto Email Invoice&lt;/span&gt;" style="text;html=1;strokeColor=none;fillColor=none;align=center;verticalAlign=middle;whiteSpace=wrap;rounded=0;" vertex="1" parent="b3EC32EAvZj1WRJHVYOg-33">
          <mxGeometry x="45" y="21.5" width="140" height="20" as="geometry" />
        </mxCell>
        <mxCell id="b3EC32EAvZj1WRJHVYOg-41" value="&lt;font face=&quot;verdana&quot; style=&quot;font-size: 14px&quot;&gt;&lt;i style=&quot;font-size: 14px&quot;&gt;Payment Image&lt;/i&gt;&lt;/font&gt;" style="text;html=1;strokeColor=none;fillColor=none;align=center;verticalAlign=middle;whiteSpace=wrap;rounded=0;fontStyle=1;fontSize=14;" vertex="1" parent="8TQKE4w585ppP9CMNDy4-1">
          <mxGeometry x="234" y="190" width="220" height="20" as="geometry" />
        </mxCell>
        <mxCell id="b3EC32EAvZj1WRJHVYOg-42" value="" style="verticalLabelPosition=bottom;shadow=0;dashed=0;align=center;html=1;verticalAlign=top;strokeWidth=1;shape=mxgraph.mockup.graphics.simpleIcon;strokeColor=#999999;fontSize=14;fillColor=#EDEDED;" vertex="1" parent="8TQKE4w585ppP9CMNDy4-1">
          <mxGeometry x="280" y="217.5" width="480" height="292.5" as="geometry" />
        </mxCell>
      </root>
    </mxGraphModel>
  </diagram>
  <diagram id="1lbyZs5sqPjbqFVGI9cg" name="Cheque">
    <mxGraphModel dx="1038" dy="548" grid="1" gridSize="10" guides="1" tooltips="1" connect="1" arrows="1" fold="1" page="1" pageScale="1" pageWidth="850" pageHeight="1100" math="0" shadow="0">
      <root>
        <mxCell id="s3b7l9Dy-CVJAXHw3aP9-0" />
        <mxCell id="s3b7l9Dy-CVJAXHw3aP9-1" parent="s3b7l9Dy-CVJAXHw3aP9-0" />
        <mxCell id="b9_Xuj7MPuSTFrwNinAq-0" value="" style="whiteSpace=wrap;html=1;rounded=0;shadow=0;labelBackgroundColor=none;strokeColor=#000000;strokeWidth=1;fillColor=none;fontFamily=Verdana;fontSize=12;fontColor=#000000;align=center;comic=1;" vertex="1" parent="s3b7l9Dy-CVJAXHw3aP9-1">
          <mxGeometry x="20" y="20" width="1060" height="570" as="geometry" />
        </mxCell>
        <mxCell id="b9_Xuj7MPuSTFrwNinAq-1" value="Logo" style="whiteSpace=wrap;html=1;rounded=0;shadow=0;labelBackgroundColor=none;strokeWidth=1;fontFamily=Verdana;fontSize=28;align=center;comic=1;" vertex="1" parent="s3b7l9Dy-CVJAXHw3aP9-1">
          <mxGeometry x="40" y="50" width="180" height="50" as="geometry" />
        </mxCell>
        <mxCell id="b9_Xuj7MPuSTFrwNinAq-2" value="" style="line;strokeWidth=1;html=1;rounded=0;shadow=0;labelBackgroundColor=none;fillColor=none;fontFamily=Verdana;fontSize=14;fontColor=#000000;align=center;comic=1;rotation=90;" vertex="1" parent="s3b7l9Dy-CVJAXHw3aP9-1">
          <mxGeometry x="-45" y="302" width="570" height="10" as="geometry" />
        </mxCell>
        <mxCell id="b9_Xuj7MPuSTFrwNinAq-3" value="" style="whiteSpace=wrap;html=1;rounded=0;shadow=0;labelBackgroundColor=none;strokeWidth=1;fillColor=none;fontFamily=Verdana;fontSize=12;align=center;comic=1;" vertex="1" parent="s3b7l9Dy-CVJAXHw3aP9-1">
          <mxGeometry x="260" y="170" width="500" height="310" as="geometry" />
        </mxCell>
        <mxCell id="b9_Xuj7MPuSTFrwNinAq-4" value="Icon" style="text;html=1;points=[];align=left;verticalAlign=top;spacingTop=-4;fontSize=14;fontFamily=Verdana" vertex="1" parent="s3b7l9Dy-CVJAXHw3aP9-1">
          <mxGeometry x="940" y="70" width="170" height="20" as="geometry" />
        </mxCell>
        <mxCell id="b9_Xuj7MPuSTFrwNinAq-5" value="Icon" style="text;html=1;points=[];align=left;verticalAlign=top;spacingTop=-4;fontSize=14;fontFamily=Verdana" vertex="1" parent="s3b7l9Dy-CVJAXHw3aP9-1">
          <mxGeometry x="880" y="70" width="170" height="20" as="geometry" />
        </mxCell>
        <mxCell id="b9_Xuj7MPuSTFrwNinAq-6" value="" style="group" vertex="1" connectable="0" parent="s3b7l9Dy-CVJAXHw3aP9-1">
          <mxGeometry x="820" y="170" width="220" height="60" as="geometry" />
        </mxCell>
        <mxCell id="b9_Xuj7MPuSTFrwNinAq-7" value="" style="whiteSpace=wrap;html=1;rounded=0;shadow=0;labelBackgroundColor=none;strokeWidth=1;fillColor=none;fontFamily=Verdana;fontSize=12;align=center;comic=1;" vertex="1" parent="b9_Xuj7MPuSTFrwNinAq-6">
          <mxGeometry width="220" height="60" as="geometry" />
        </mxCell>
        <mxCell id="b9_Xuj7MPuSTFrwNinAq-8" value="" style="ellipse;whiteSpace=wrap;html=1;aspect=fixed;strokeColor=#000000;" vertex="1" parent="b9_Xuj7MPuSTFrwNinAq-6">
          <mxGeometry x="12" y="14" width="35" height="35" as="geometry" />
        </mxCell>
        <mxCell id="b9_Xuj7MPuSTFrwNinAq-9" value="&lt;span style=&quot;font-family: &amp;#34;verdana&amp;#34;&quot;&gt;Record PDCs&lt;/span&gt;" style="text;html=1;strokeColor=none;fillColor=none;align=center;verticalAlign=middle;whiteSpace=wrap;rounded=0;" vertex="1" parent="b9_Xuj7MPuSTFrwNinAq-6">
          <mxGeometry x="45" y="21.5" width="140" height="20" as="geometry" />
        </mxCell>
        <mxCell id="b9_Xuj7MPuSTFrwNinAq-10" value="" style="group" vertex="1" connectable="0" parent="s3b7l9Dy-CVJAXHw3aP9-1">
          <mxGeometry x="51" y="130" width="100" height="225" as="geometry" />
        </mxCell>
        <mxCell id="b9_Xuj7MPuSTFrwNinAq-11" value="Menu 1" style="text;html=1;strokeColor=none;fillColor=none;align=center;verticalAlign=middle;whiteSpace=wrap;rounded=0;fontSize=15;" vertex="1" parent="b9_Xuj7MPuSTFrwNinAq-10">
          <mxGeometry width="100" height="28.125" as="geometry" />
        </mxCell>
        <mxCell id="b9_Xuj7MPuSTFrwNinAq-12" value="Menu 2" style="text;html=1;strokeColor=none;fillColor=none;align=center;verticalAlign=middle;whiteSpace=wrap;rounded=0;fontSize=15;" vertex="1" parent="b9_Xuj7MPuSTFrwNinAq-10">
          <mxGeometry y="50.625" width="100" height="28.125" as="geometry" />
        </mxCell>
        <mxCell id="b9_Xuj7MPuSTFrwNinAq-13" value="Menu 3" style="text;html=1;strokeColor=none;fillColor=none;align=center;verticalAlign=middle;whiteSpace=wrap;rounded=0;fontSize=15;" vertex="1" parent="b9_Xuj7MPuSTFrwNinAq-10">
          <mxGeometry y="99.84375" width="100" height="28.125" as="geometry" />
        </mxCell>
        <mxCell id="b9_Xuj7MPuSTFrwNinAq-14" value="Menu 4" style="text;html=1;strokeColor=none;fillColor=none;align=center;verticalAlign=middle;whiteSpace=wrap;rounded=0;fontSize=15;" vertex="1" parent="b9_Xuj7MPuSTFrwNinAq-10">
          <mxGeometry y="147.65625" width="100" height="28.125" as="geometry" />
        </mxCell>
        <mxCell id="b9_Xuj7MPuSTFrwNinAq-15" value="Menu 5" style="text;html=1;strokeColor=none;fillColor=none;align=center;verticalAlign=middle;whiteSpace=wrap;rounded=0;fontSize=15;" vertex="1" parent="b9_Xuj7MPuSTFrwNinAq-10">
          <mxGeometry y="196.875" width="100" height="28.125" as="geometry" />
        </mxCell>
        <mxCell id="b9_Xuj7MPuSTFrwNinAq-16" value="" style="ellipse;whiteSpace=wrap;html=1;aspect=fixed;strokeColor=#000000;fontSize=15;" vertex="1" parent="b9_Xuj7MPuSTFrwNinAq-10">
          <mxGeometry x="-8" y="4" width="20" height="20" as="geometry" />
        </mxCell>
        <mxCell id="b9_Xuj7MPuSTFrwNinAq-17" value="" style="ellipse;whiteSpace=wrap;html=1;aspect=fixed;strokeColor=#000000;fontSize=15;" vertex="1" parent="b9_Xuj7MPuSTFrwNinAq-10">
          <mxGeometry x="-8" y="58.75" width="20" height="20" as="geometry" />
        </mxCell>
        <mxCell id="b9_Xuj7MPuSTFrwNinAq-18" value="" style="ellipse;whiteSpace=wrap;html=1;aspect=fixed;strokeColor=#000000;fontSize=15;" vertex="1" parent="b9_Xuj7MPuSTFrwNinAq-10">
          <mxGeometry x="-8" y="102.5" width="20" height="20" as="geometry" />
        </mxCell>
        <mxCell id="b9_Xuj7MPuSTFrwNinAq-19" value="" style="ellipse;whiteSpace=wrap;html=1;aspect=fixed;strokeColor=#000000;fontSize=15;" vertex="1" parent="b9_Xuj7MPuSTFrwNinAq-10">
          <mxGeometry x="-8" y="200.93999999999994" width="20" height="20" as="geometry" />
        </mxCell>
        <mxCell id="b9_Xuj7MPuSTFrwNinAq-20" value="" style="line;strokeWidth=2;html=1;fontSize=15;" vertex="1" parent="s3b7l9Dy-CVJAXHw3aP9-1">
          <mxGeometry x="258" y="60" width="20" height="10" as="geometry" />
        </mxCell>
        <mxCell id="b9_Xuj7MPuSTFrwNinAq-21" value="" style="line;strokeWidth=2;html=1;fontSize=15;" vertex="1" parent="s3b7l9Dy-CVJAXHw3aP9-1">
          <mxGeometry x="258" y="67" width="20" height="10" as="geometry" />
        </mxCell>
        <mxCell id="b9_Xuj7MPuSTFrwNinAq-22" value="" style="line;strokeWidth=2;html=1;fontSize=15;" vertex="1" parent="s3b7l9Dy-CVJAXHw3aP9-1">
          <mxGeometry x="258" y="74" width="20" height="10" as="geometry" />
        </mxCell>
        <mxCell id="b9_Xuj7MPuSTFrwNinAq-23" value="" style="ellipse;whiteSpace=wrap;html=1;aspect=fixed;strokeColor=#000000;fontSize=15;" vertex="1" parent="s3b7l9Dy-CVJAXHw3aP9-1">
          <mxGeometry x="43" y="281.71999999999997" width="20" height="20" as="geometry" />
        </mxCell>
        <mxCell id="b9_Xuj7MPuSTFrwNinAq-24" value="" style="shape=actor;whiteSpace=wrap;html=1;strokeColor=#000000;fontSize=15;" vertex="1" parent="s3b7l9Dy-CVJAXHw3aP9-1">
          <mxGeometry x="1000" y="50" width="40" height="50" as="geometry" />
        </mxCell>
        <mxCell id="b9_Xuj7MPuSTFrwNinAq-25" value="" style="group" vertex="1" connectable="0" parent="s3b7l9Dy-CVJAXHw3aP9-1">
          <mxGeometry x="820" y="247" width="220" height="60" as="geometry" />
        </mxCell>
        <mxCell id="b9_Xuj7MPuSTFrwNinAq-26" value="" style="whiteSpace=wrap;html=1;rounded=0;shadow=0;labelBackgroundColor=none;strokeWidth=1;fillColor=none;fontFamily=Verdana;fontSize=12;align=center;comic=1;" vertex="1" parent="b9_Xuj7MPuSTFrwNinAq-25">
          <mxGeometry width="220" height="60" as="geometry" />
        </mxCell>
        <mxCell id="b9_Xuj7MPuSTFrwNinAq-27" value="" style="ellipse;whiteSpace=wrap;html=1;aspect=fixed;strokeColor=#000000;" vertex="1" parent="b9_Xuj7MPuSTFrwNinAq-25">
          <mxGeometry x="12" y="14" width="35" height="35" as="geometry" />
        </mxCell>
        <mxCell id="b9_Xuj7MPuSTFrwNinAq-28" value="&lt;span style=&quot;font-family: &amp;#34;verdana&amp;#34;&quot;&gt;Record Checks&lt;/span&gt;" style="text;html=1;strokeColor=none;fillColor=none;align=center;verticalAlign=middle;whiteSpace=wrap;rounded=0;" vertex="1" parent="b9_Xuj7MPuSTFrwNinAq-25">
          <mxGeometry x="45" y="21.5" width="140" height="20" as="geometry" />
        </mxCell>
        <mxCell id="b9_Xuj7MPuSTFrwNinAq-41" value="&lt;font face=&quot;verdana&quot; style=&quot;font-size: 14px&quot;&gt;&lt;i style=&quot;font-size: 14px&quot;&gt;Record PDCs&lt;/i&gt;&lt;/font&gt;" style="text;html=1;strokeColor=none;fillColor=none;align=center;verticalAlign=middle;whiteSpace=wrap;rounded=0;fontStyle=1;fontSize=14;" vertex="1" parent="s3b7l9Dy-CVJAXHw3aP9-1">
          <mxGeometry x="270" y="190" width="155" height="20" as="geometry" />
        </mxCell>
        <mxCell id="b9_Xuj7MPuSTFrwNinAq-42" value="" style="verticalLabelPosition=bottom;shadow=0;dashed=0;align=center;html=1;verticalAlign=top;strokeWidth=1;shape=mxgraph.mockup.graphics.simpleIcon;strokeColor=#999999;fillColor=#ffffff;fontSize=14;" vertex="1" parent="s3b7l9Dy-CVJAXHw3aP9-1">
          <mxGeometry x="290" y="247" width="50" height="50" as="geometry" />
        </mxCell>
        <mxCell id="b9_Xuj7MPuSTFrwNinAq-43" value="" style="verticalLabelPosition=bottom;shadow=0;dashed=0;align=center;html=1;verticalAlign=top;strokeWidth=1;shape=mxgraph.mockup.graphics.simpleIcon;strokeColor=#999999;fillColor=#ffffff;fontSize=14;" vertex="1" parent="s3b7l9Dy-CVJAXHw3aP9-1">
          <mxGeometry x="365" y="247" width="50" height="50" as="geometry" />
        </mxCell>
        <mxCell id="b9_Xuj7MPuSTFrwNinAq-44" value="" style="verticalLabelPosition=bottom;shadow=0;dashed=0;align=center;html=1;verticalAlign=top;strokeWidth=1;shape=mxgraph.mockup.graphics.simpleIcon;strokeColor=#999999;fillColor=#ffffff;fontSize=14;" vertex="1" parent="s3b7l9Dy-CVJAXHw3aP9-1">
          <mxGeometry x="440" y="247" width="50" height="50" as="geometry" />
        </mxCell>
        <mxCell id="b9_Xuj7MPuSTFrwNinAq-45" value="" style="verticalLabelPosition=bottom;shadow=0;dashed=0;align=center;html=1;verticalAlign=top;strokeWidth=1;shape=mxgraph.mockup.graphics.simpleIcon;strokeColor=#999999;fillColor=#ffffff;fontSize=14;" vertex="1" parent="s3b7l9Dy-CVJAXHw3aP9-1">
          <mxGeometry x="290" y="322" width="50" height="50" as="geometry" />
        </mxCell>
        <mxCell id="b9_Xuj7MPuSTFrwNinAq-46" value="" style="verticalLabelPosition=bottom;shadow=0;dashed=0;align=center;html=1;verticalAlign=top;strokeWidth=1;shape=mxgraph.mockup.graphics.simpleIcon;strokeColor=#999999;fillColor=#ffffff;fontSize=14;" vertex="1" parent="s3b7l9Dy-CVJAXHw3aP9-1">
          <mxGeometry x="365" y="322" width="50" height="50" as="geometry" />
        </mxCell>
        <mxCell id="b9_Xuj7MPuSTFrwNinAq-47" value="" style="verticalLabelPosition=bottom;shadow=0;dashed=0;align=center;html=1;verticalAlign=top;strokeWidth=1;shape=mxgraph.mockup.graphics.simpleIcon;strokeColor=#999999;fillColor=#ffffff;fontSize=14;" vertex="1" parent="s3b7l9Dy-CVJAXHw3aP9-1">
          <mxGeometry x="440" y="322" width="50" height="50" as="geometry" />
        </mxCell>
        <mxCell id="b9_Xuj7MPuSTFrwNinAq-48" value="" style="verticalLabelPosition=bottom;shadow=0;dashed=0;align=center;html=1;verticalAlign=top;strokeWidth=1;shape=mxgraph.mockup.graphics.simpleIcon;strokeColor=#999999;fillColor=#ffffff;fontSize=14;" vertex="1" parent="s3b7l9Dy-CVJAXHw3aP9-1">
          <mxGeometry x="290" y="397" width="50" height="50" as="geometry" />
        </mxCell>
        <mxCell id="b9_Xuj7MPuSTFrwNinAq-49" value="" style="verticalLabelPosition=bottom;shadow=0;dashed=0;align=center;html=1;verticalAlign=top;strokeWidth=1;shape=mxgraph.mockup.graphics.simpleIcon;strokeColor=#999999;fillColor=#ffffff;fontSize=14;" vertex="1" parent="s3b7l9Dy-CVJAXHw3aP9-1">
          <mxGeometry x="365" y="397" width="50" height="50" as="geometry" />
        </mxCell>
        <mxCell id="b9_Xuj7MPuSTFrwNinAq-50" value="" style="verticalLabelPosition=bottom;shadow=0;dashed=0;align=center;html=1;verticalAlign=top;strokeWidth=1;shape=mxgraph.mockup.graphics.simpleIcon;strokeColor=#999999;fillColor=#ffffff;fontSize=14;" vertex="1" parent="s3b7l9Dy-CVJAXHw3aP9-1">
          <mxGeometry x="440" y="397" width="50" height="50" as="geometry" />
        </mxCell>
        <mxCell id="b9_Xuj7MPuSTFrwNinAq-51" value="" style="verticalLabelPosition=bottom;shadow=0;dashed=0;align=center;html=1;verticalAlign=top;strokeWidth=1;shape=mxgraph.mockup.graphics.simpleIcon;strokeColor=#999999;fillColor=#ffffff;fontSize=14;" vertex="1" parent="s3b7l9Dy-CVJAXHw3aP9-1">
          <mxGeometry x="525" y="247" width="50" height="50" as="geometry" />
        </mxCell>
        <mxCell id="b9_Xuj7MPuSTFrwNinAq-52" value="" style="verticalLabelPosition=bottom;shadow=0;dashed=0;align=center;html=1;verticalAlign=top;strokeWidth=1;shape=mxgraph.mockup.graphics.simpleIcon;strokeColor=#999999;fillColor=#ffffff;fontSize=14;" vertex="1" parent="s3b7l9Dy-CVJAXHw3aP9-1">
          <mxGeometry x="600" y="247" width="50" height="50" as="geometry" />
        </mxCell>
        <mxCell id="b9_Xuj7MPuSTFrwNinAq-53" value="" style="verticalLabelPosition=bottom;shadow=0;dashed=0;align=center;html=1;verticalAlign=top;strokeWidth=1;shape=mxgraph.mockup.graphics.simpleIcon;strokeColor=#999999;fillColor=#ffffff;fontSize=14;" vertex="1" parent="s3b7l9Dy-CVJAXHw3aP9-1">
          <mxGeometry x="675" y="247" width="50" height="50" as="geometry" />
        </mxCell>
        <mxCell id="b9_Xuj7MPuSTFrwNinAq-54" value="" style="verticalLabelPosition=bottom;shadow=0;dashed=0;align=center;html=1;verticalAlign=top;strokeWidth=1;shape=mxgraph.mockup.graphics.simpleIcon;strokeColor=#999999;fillColor=#ffffff;fontSize=14;" vertex="1" parent="s3b7l9Dy-CVJAXHw3aP9-1">
          <mxGeometry x="525" y="322" width="50" height="50" as="geometry" />
        </mxCell>
        <mxCell id="b9_Xuj7MPuSTFrwNinAq-55" value="" style="verticalLabelPosition=bottom;shadow=0;dashed=0;align=center;html=1;verticalAlign=top;strokeWidth=1;shape=mxgraph.mockup.graphics.simpleIcon;strokeColor=#999999;fillColor=#ffffff;fontSize=14;" vertex="1" parent="s3b7l9Dy-CVJAXHw3aP9-1">
          <mxGeometry x="600" y="322" width="50" height="50" as="geometry" />
        </mxCell>
        <mxCell id="b9_Xuj7MPuSTFrwNinAq-56" value="" style="verticalLabelPosition=bottom;shadow=0;dashed=0;align=center;html=1;verticalAlign=top;strokeWidth=1;shape=mxgraph.mockup.graphics.simpleIcon;strokeColor=#999999;fillColor=#ffffff;fontSize=14;" vertex="1" parent="s3b7l9Dy-CVJAXHw3aP9-1">
          <mxGeometry x="675" y="322" width="50" height="50" as="geometry" />
        </mxCell>
        <mxCell id="b9_Xuj7MPuSTFrwNinAq-57" value="" style="verticalLabelPosition=bottom;shadow=0;dashed=0;align=center;html=1;verticalAlign=top;strokeWidth=1;shape=mxgraph.mockup.graphics.simpleIcon;strokeColor=#999999;fillColor=#ffffff;fontSize=14;" vertex="1" parent="s3b7l9Dy-CVJAXHw3aP9-1">
          <mxGeometry x="525" y="397" width="50" height="50" as="geometry" />
        </mxCell>
        <mxCell id="b9_Xuj7MPuSTFrwNinAq-58" value="" style="verticalLabelPosition=bottom;shadow=0;dashed=0;align=center;html=1;verticalAlign=top;strokeWidth=1;shape=mxgraph.mockup.graphics.simpleIcon;strokeColor=#999999;fillColor=#ffffff;fontSize=14;" vertex="1" parent="s3b7l9Dy-CVJAXHw3aP9-1">
          <mxGeometry x="600" y="397" width="50" height="50" as="geometry" />
        </mxCell>
        <mxCell id="b9_Xuj7MPuSTFrwNinAq-59" value="" style="verticalLabelPosition=bottom;shadow=0;dashed=0;align=center;html=1;verticalAlign=top;strokeWidth=1;shape=mxgraph.mockup.graphics.simpleIcon;strokeColor=#999999;fillColor=#ffffff;fontSize=14;" vertex="1" parent="s3b7l9Dy-CVJAXHw3aP9-1">
          <mxGeometry x="675" y="397" width="50" height="50" as="geometry" />
        </mxCell>
      </root>
    </mxGraphModel>
  </diagram>
  <diagram id="IceWHwdzR0pU5Sp5yaF-" name="Page-5">
    <mxGraphModel dx="1038" dy="548" grid="1" gridSize="10" guides="1" tooltips="1" connect="1" arrows="1" fold="1" page="1" pageScale="1" pageWidth="850" pageHeight="1100" math="0" shadow="0">
      <root>
        <mxCell id="Tqj9jFTUmtv28T0pIMCA-0" />
        <mxCell id="Tqj9jFTUmtv28T0pIMCA-1" parent="Tqj9jFTUmtv28T0pIMCA-0" />
      </root>
    </mxGraphModel>
  </diagram>
</mxfile>
